<?xml version="1.0" encoding="UTF-8" standalone="no"?>
<svg
   xmlns:dc="http://purl.org/dc/elements/1.1/"
   xmlns:cc="http://creativecommons.org/ns#"
   xmlns:rdf="http://www.w3.org/1999/02/22-rdf-syntax-ns#"
   xmlns:svg="http://www.w3.org/2000/svg"
   xmlns="http://www.w3.org/2000/svg"
   xmlns:sodipodi="http://sodipodi.sourceforge.net/DTD/sodipodi-0.dtd"
   xmlns:inkscape="http://www.inkscape.org/namespaces/inkscape"
   inkscape:version="1.0 (6e3e5246a0, 2020-05-07)"
   sodipodi:docname="Logo Vulcore B.svg"
   viewBox="0 0 906.66669 242.66667"
   height="242.66667"
   width="906.66669"
   xml:space="preserve"
   id="svg2"
   version="1.1"><metadata
     id="metadata8"><rdf:RDF><cc:Work
         rdf:about=""><dc:format>image/svg+xml</dc:format><dc:type
           rdf:resource="http://purl.org/dc/dcmitype/StillImage" /><dc:title /></cc:Work></rdf:RDF></metadata><defs
     id="defs6"><clipPath
       id="clipPath20"
       clipPathUnits="userSpaceOnUse"><path
         inkscape:connector-curvature="0"
         id="path18"
         d="M 0,182 H 680 V 0 H 0 Z" /></clipPath></defs><sodipodi:namedview
     inkscape:document-rotation="0"
     inkscape:current-layer="g16"
     inkscape:window-maximized="1"
     inkscape:window-y="27"
     inkscape:window-x="72"
     inkscape:cy="210.00489"
     inkscape:cx="72.04564"
     inkscape:zoom="0.45110293"
     showgrid="false"
     id="namedview4"
     inkscape:window-height="704"
     inkscape:window-width="1288"
     inkscape:pageshadow="2"
     inkscape:pageopacity="0"
     guidetolerance="10"
     gridtolerance="10"
     objecttolerance="10"
     borderopacity="1"
     bordercolor="#666666"
     pagecolor="#ffffff" /><g
     transform="matrix(1.3333333,0,0,-1.3333333,0,242.66667)"
     inkscape:label="Logo Vulcore"
     inkscape:groupmode="layer"
     id="g10"><g
       id="g14"><g
         clip-path="url(#clipPath20)"
         id="g16"><g
           style="fill:#552200"
           transform="translate(203.6733,89.457)"
           id="g22"><path
             inkscape:connector-curvature="0"
             id="path24"
             style="fill:#552200;fill-opacity:1;fill-rule:nonzero;stroke:none"
             d="m 0,0 c -3.198,0 -5.55,1.449 -7.058,4.344 l -30.039,54.47 h 17.825 L 1.81,19.003 22.892,58.814 H 40.717 L 10.587,4.344 C 9.017,1.449 6.695,0 3.62,0 Z" /></g><g
           transform="translate(276.6011,89.457)"
           id="g26"><path
             inkscape:connector-curvature="0"
             id="path28"
             style="fill:#552200;fill-opacity:1;fill-rule:nonzero;stroke:none"
             d="m 0,0 c -3.922,0 -7.511,0.617 -10.768,1.856 -3.256,1.235 -6.092,2.969 -8.504,5.201 -2.415,2.232 -4.285,4.902 -5.61,8.008 -1.328,3.107 -1.991,6.529 -1.991,10.271 v 33.478 h 15.925 V 26.512 c 0,-3.439 1.054,-6.186 3.167,-8.233 2.11,-2.053 4.795,-3.079 8.052,-3.079 h 12.487 c 3.257,0 5.94,1.026 8.053,3.079 2.111,2.047 3.167,4.794 3.167,8.233 V 58.814 H 39.902 V 25.336 c 0,-3.742 -0.665,-7.164 -1.991,-10.271 C 36.584,11.959 34.714,9.289 32.302,7.057 29.889,4.825 27.038,3.091 23.751,1.856 20.463,0.617 16.889,0 13.029,0 Z" /></g><g
           style="fill:#552200"
           transform="translate(325.9136,89.457)"
           id="g30"><path
             inkscape:connector-curvature="0"
             id="path32"
             style="fill:#552200;fill-opacity:1;fill-rule:nonzero;stroke:none"
             d="M 0,0 V 58.814 H 15.925 V 15.2 H 51.754 V 0 Z" /></g><g
           style="fill:#552200"
           transform="translate(411.5078,89.457)"
           id="g34"><path
             inkscape:connector-curvature="0"
             id="path36"
             style="fill:#552200;fill-opacity:1;fill-rule:nonzero;stroke:none"
             d="m 0,0 c -4.523,0 -8.686,0.709 -12.486,2.127 -3.799,1.416 -7.073,3.407 -9.817,5.971 -2.746,2.563 -4.902,5.656 -6.468,9.275 -1.571,3.619 -2.354,7.631 -2.354,12.033 0,4.405 0.783,8.401 2.354,11.99 1.566,3.587 3.722,6.679 6.468,9.275 2.744,2.592 6.018,4.599 9.817,6.017 3.8,1.416 7.963,2.126 12.486,2.126 H 28.773 V 43.703 H -1.086 c -2.051,0 -3.951,-0.347 -5.699,-1.04 -1.75,-0.694 -3.258,-1.673 -4.526,-2.94 -1.265,-1.268 -2.261,-2.776 -2.984,-4.525 -0.725,-1.75 -1.086,-3.68 -1.086,-5.792 0,-2.112 0.361,-4.04 1.086,-5.789 0.723,-1.75 1.719,-3.244 2.984,-4.478 1.268,-1.238 2.776,-2.204 4.526,-2.898 1.748,-0.694 3.648,-1.041 5.699,-1.041 H 28.773 V 0 Z" /></g><g
           transform="translate(141.7979,73.8848)"
           id="g38"><path
             inkscape:connector-curvature="0"
             id="path40"
             style="fill:#e7632c;fill-opacity:1;fill-rule:nonzero;stroke:none"
             d="m 0,0 c -0.278,-15.006 -17.918,-26.662 -27.486,-26.482 -14.901,0.275 -26.757,12.583 -26.479,27.484 0.277,14.899 12.579,26.758 27.482,26.478 C -11.58,27.206 0.277,14.899 0,0" /></g><g
           transform="translate(131.9829,74.1113)"
           id="g42"><path
             inkscape:connector-curvature="0"
             id="path44"
             style="fill:#fdd200;fill-opacity:1;fill-rule:nonzero;stroke:none"
             d="m 0,0 c -0.175,-9.493 -8.014,-17.044 -17.508,-16.867 -9.491,0.177 -17.043,8.013 -16.866,17.506 0.176,9.492 8.013,17.043 17.504,16.867 C -7.376,17.329 0.176,9.491 0,0" /></g><g
           transform="translate(195.8599,51.3506)"
           id="g46"><path
             inkscape:connector-curvature="0"
             id="path48"
             style="fill:#de2871;fill-opacity:1;fill-rule:nonzero;stroke:none"
             d="m 0,0 -1.7,2.92 -60.454,103.897 c -0.252,0.47 -0.52,0.932 -0.805,1.384 -1.844,2.913 -4.4,5.437 -7.602,7.271 -0.663,0.38 -1.338,0.715 -2.021,1.018 V 65.037 c 4.137,-0.909 8.207,-2.45 12.077,-4.668 20.466,-11.722 27.553,-37.817 15.828,-58.285 -11.723,-20.465 -37.817,-27.551 -58.285,-15.829 -20.466,11.725 -27.552,37.822 -15.829,58.287 6.488,11.328 17.381,18.547 29.283,20.756 v 51.493 c -3.995,-1.589 -7.558,-4.34 -10.094,-8.136 -0.28,-0.42 -0.553,-0.843 -0.806,-1.291 -0.255,-0.445 -0.487,-0.892 -0.705,-1.349 l -59.459,-103.791 -1.513,-2.646 c -4.984,-10.273 -1.229,-22.801 8.831,-28.563 2.802,-1.606 5.811,-2.519 8.829,-2.801 l 4.244,0.012 119.339,0.406 2.44,0.006 c 7.116,0.427 13.887,4.314 17.695,10.963 C 3.021,-13.897 3.032,-6.277 0,0" /></g><g
           style="fill:#552200"
           transform="translate(500.5879,113.0742)"
           id="g50"><path
             inkscape:connector-curvature="0"
             id="path52"
             style="fill:#552200;fill-opacity:1;fill-rule:nonzero;stroke:none"
             d="m 0,0 c -0.695,-1.75 -1.674,-3.244 -2.941,-4.479 -1.266,-1.237 -2.776,-2.204 -4.526,-2.897 -1.748,-0.694 -3.648,-1.041 -5.699,-1.041 h -10.676 c -2.113,0 -4.043,0.347 -5.791,1.041 -1.75,0.693 -3.258,1.66 -4.525,2.897 -1.266,1.235 -2.246,2.729 -2.942,4.479 -0.693,1.749 -1.039,3.677 -1.039,5.789 0,2.111 0.362,4.042 1.086,5.792 0.725,1.749 1.719,3.257 2.987,4.524 1.265,1.268 2.773,2.247 4.525,2.941 1.748,0.693 3.646,1.04 5.699,1.04 h 10.676 c 2.051,0 3.951,-0.347 5.699,-1.04 1.75,-0.694 3.26,-1.673 4.526,-2.941 C -1.674,14.838 -0.695,13.33 0,11.581 0.693,9.831 1.039,7.9 1.039,5.789 1.039,3.677 0.693,1.749 0,0 m 14.432,-6.244 c 1.566,3.619 2.351,7.631 2.351,12.033 0,4.404 -0.785,8.4 -2.351,11.989 -1.571,3.588 -3.727,6.68 -6.471,9.276 -2.744,2.592 -6.016,4.598 -9.816,6.016 -3.799,1.416 -7.932,2.127 -12.397,2.127 h -8.504 c -4.525,0 -8.685,-0.711 -12.488,-2.127 -3.799,-1.418 -7.072,-3.424 -9.817,-6.016 -2.746,-2.596 -4.9,-5.688 -6.468,-9.276 -1.571,-3.589 -2.354,-7.585 -2.354,-11.989 0,-4.402 0.783,-8.414 2.354,-12.033 1.568,-3.619 3.722,-6.712 6.468,-9.276 2.745,-2.563 6.018,-4.554 9.817,-5.97 3.803,-1.418 7.963,-2.127 12.488,-2.127 h 8.504 c 4.465,0 8.598,0.709 12.397,2.127 3.8,1.416 7.072,3.407 9.816,5.97 2.744,2.564 4.9,5.657 6.471,9.276" /></g><g
           style="fill:#552200"
           transform="translate(565.9609,133.1602)"
           id="g54"><path
             inkscape:connector-curvature="0"
             id="path56"
             style="fill:#552200;fill-opacity:1;fill-rule:nonzero;stroke:none"
             d="M 0,0 C 2.17,0 3.951,-0.678 5.338,-2.035 6.725,-3.395 7.42,-5.218 7.42,-7.511 7.42,-9.803 6.725,-11.627 5.338,-12.983 3.951,-14.341 2.17,-15.019 0,-15.019 H -24.793 V 0 Z m -24.793,-28.773 h 18.457 l 11.764,-14.93 h 20.629 l -14.838,17.281 c 3.677,1.75 6.605,4.313 8.775,7.693 2.174,3.376 3.26,7.33 3.26,11.854 0,3.256 -0.576,6.243 -1.721,8.957 -1.144,2.713 -2.76,5.034 -4.842,6.967 -2.08,1.929 -4.539,3.423 -7.373,4.478 C 6.482,14.581 3.377,15.111 0,15.111 h -40.535 v -58.814 h 15.742 z" /></g><g
           style="fill:#552200"
           transform="translate(613.373,104.6572)"
           id="g58"><path
             inkscape:connector-curvature="0"
             id="path60"
             style="fill:#552200;fill-opacity:1;fill-rule:nonzero;stroke:none"
             d="M 0,0 V 8.055 H 39.992 V 20.63 H 0 v 7.873 H 40.625 V 43.614 H -15.836 V -15.2 H 40.717 V 0 Z" /></g><g
           style="fill:#552200"
           transform="translate(503.6836,63.7949)"
           id="g62"><path
             inkscape:connector-curvature="0"
             id="path64"
             style="fill:#552200;fill-opacity:1;fill-rule:nonzero;stroke:none"
             d="m 0,0 h 10.863 v -21.953 h 7.955 V 0 H 29.682 V 7.592 H 0 Z" /></g><g
           style="fill:#552200"
           transform="translate(544.7266,53.5234)"
           id="g66"><path
             inkscape:connector-curvature="0"
             id="path68"
             style="fill:#552200;fill-opacity:1;fill-rule:nonzero;stroke:none"
             d="M 0,0 H 20.092 V 6.317 H 0 v 3.954 h 20.41 v 7.592 H -7.953 v -29.545 h 28.406 v 7.636 L 0,-4.046 Z" /></g><g
           style="fill:#552200"
           transform="translate(582.3594,52.7031)"
           id="g70"><path
             inkscape:connector-curvature="0"
             id="path72"
             style="fill:#552200;fill-opacity:1;fill-rule:nonzero;stroke:none"
             d="M 0,0 5.047,9.501 10.092,0 Z M 5.912,18.684 H 4.094 c -1.545,0 -2.727,-0.728 -3.545,-2.182 l -15.09,-27.363 h 8.773 l 2.413,4.545 h 16.812 l 2.455,-4.545 h 8.637 L 9.457,16.502 c -0.818,1.454 -2,2.182 -3.545,2.182" /></g><g
           style="fill:#552200"
           transform="translate(645.9492,70.6357)"
           id="g74"><path
             inkscape:connector-curvature="0"
             id="path76"
             style="fill:#552200;fill-opacity:1;fill-rule:nonzero;stroke:none"
             d="m 0,0 c -0.666,0.499 -1.5,0.751 -2.5,0.751 h -3.318 c -1.909,0 -3.153,-0.955 -3.727,-2.863 l -5.316,-17.682 -5.364,17.682 c -0.576,1.908 -1.834,2.863 -3.773,2.863 h -3.316 c -1,0 -1.838,-0.252 -2.502,-0.751 -0.666,-0.5 -1.121,-1.371 -1.364,-2.613 l -6,-26.181 h 7.864 l 4.363,19.317 5.137,-16.499 c 0.545,-1.879 1.787,-2.818 3.728,-2.818 h 2.406 c 1.94,0 3.184,0.939 3.727,2.818 l 5.137,16.181 4.363,-18.999 h 7.91 L 1.41,-2.613 C 1.137,-1.371 0.668,-0.5 0,0" /></g><g
           style="fill:#552200"
           transform="translate(490,64.1982)"
           id="g78"><path
             inkscape:connector-curvature="0"
             id="path80"
             style="fill:#552200;fill-opacity:1;fill-rule:nonzero;stroke:none"
             d="m 0,0 h -278.401 l -3.266,6.604 H 0 Z" /></g></g></g></g></svg>
